<svg width="90.000000" height="90.000000" viewBox="0 0 90 90" fill="none" xmlns="http://www.w3.org/2000/svg" xmlns:xlink="http://www.w3.org/1999/xlink">
	<desc>
			Created with Pixso.
	</desc>
	<defs>
		<clipPath id="clip4_41">
			<rect id="cloak-svgrepo-com" width="40.000000" height="41.000000" transform="translate(24.500000 24.000000)" fill="white" fill-opacity="0"/>
		</clipPath>
		<clipPath id="clip1_76">
			<rect id="Overlay+Border" rx="3.000000" width="88.000000" height="88.000000" transform="translate(1.000000 1.000000)" fill="white" fill-opacity="0"/>
		</clipPath>
	</defs>
	<rect id="Overlay+Border" rx="3.000000" width="88.000000" height="88.000000" transform="translate(1.000000 1.000000)" fill="#202225" fill-opacity="0.800000"/>
	<g clip-path="url(#clip1_76)">
		<g clip-path="url(#clip4_41)">
			<path id="path" d="M44.68 28C42.55 28 40.1 28.46 38.46 29.43C36.85 30.54 35.09 34.3 35.09 34.3C34.84 34.72 34.6 35.15 34.37 35.61C31.53 41.19 29.57 49.69 29.5 61.05C33.14 63.2 37.11 64.62 40.59 65.26C38.89 64.07 37.42 62.19 36.28 59.85C39.17 59.48 42.42 59.06 44.67 59.06C46.99 59.06 50.4 59.51 53.36 59.88C52.23 62.21 50.76 64.07 49.07 65.26C52.56 64.62 56.22 63.2 59.86 61.05C59.78 49.69 57.82 41.19 54.98 35.61C54.75 35.15 54.51 34.72 54.26 34.3C54.26 34.3 52.5 30.54 50.89 29.43C49.05 28.48 46.8 28 44.68 28ZM44.67 29.29C47.03 29.54 49.17 29.63 50.63 31.27C49.19 33.02 47.04 35.23 44.67 35.23C42.31 35.23 39.48 32.76 38.71 31.27C40.1 29.71 42.87 29.31 44.67 29.29ZM38 32.53C38.43 33.54 42.1 36.47 44.67 36.48C47.26 36.48 50.93 33.43 51.42 32.53C51.42 32.53 52.38 34.03 52.87 35.02L53.23 35.89C54.83 39.51 55.77 43.32 55.77 48.55C55.77 52.21 55.12 55.61 53.99 58.46C51.45 58.11 48.21 57.87 44.68 57.87C41.28 57.87 38.15 58.09 35.66 58.42C34.54 55.58 33.89 52.19 33.89 48.55C33.89 43.32 34.52 39.51 36.12 35.89L36.48 35.02C36.97 34.03 38 32.53 38 32.53Z" fill="#727272" fill-opacity="1.000000" fill-rule="nonzero"/>
		</g>
	</g>
	<rect id="Overlay+Border" rx="3.000000" width="88.000000" height="88.000000" transform="translate(1.000000 1.000000)" stroke="#5E6165" stroke-opacity="0.800000" stroke-width="2.000000"/>
</svg>
