<?xml version="1.0"?>
<svg width="512.04" height="512.04" xmlns="http://www.w3.org/2000/svg" xmlns:svg="http://www.w3.org/2000/svg" enable-background="new 0 0 512.04 512.04">
 <g class="layer">
  <title>Layer 1</title>
  <g id="svg_1">
   <g id="svg_2">
    <g clip-rule="evenodd" fill-rule="evenodd" id="svg_3">
     <path d="m470.24,379.7l-54.08,-22.5l-160.14,146.18l214.22,-123.68z" fill="rgb(251, 116, 116)" id="svg_4"/>
     <path d="m256.02,503.38l160.13,-146.18l-320.27,0l160.14,146.18z" fill="rgb(245, 0, 0)" id="svg_5"/>
     <path d="m256.02,503.38l-160.14,-146.18l-54.08,22.5l214.22,123.68z" fill="rgb(251, 116, 116)" id="svg_6"/>
     <path d="m41.8,132.34l214.22,-52.5l0,-71.18l-214.22,123.68z" fill="rgb(251, 116, 116)" id="svg_7"/>
     <path d="m256.02,79.84l214.22,52.5l-214.22,-123.68l0,71.18z" fill="rgb(251, 116, 116)" id="svg_8"/>
     <path d="m416.15,357.2l-160.13,-277.36l-160.14,277.36l320.27,0z" fill="rgb(251, 116, 116)" id="svg_9"/>
     <path d="m95.89,357.2l160.13,-277.36l-214.22,52.5l54.09,224.86z" fill="rgb(245, 0, 0)" id="svg_10"/>
     <path d="m256.02,79.84l160.13,277.36l54.09,-224.86l-214.22,-52.5z" fill="rgb(245, 0, 0)" id="svg_11"/>
     <path d="m470.24,132.34l-54.08,224.86l54.08,22.5l0,-247.36z" fill="rgb(251, 116, 116)" id="svg_12"/>
     <path d="m95.89,357.2l-54.09,-224.86l0,247.36l54.09,-22.5z" fill="rgb(251, 116, 116)" id="svg_13"/>
    </g>
    <g id="svg_14">
     <path d="m437.9,163.03l-14.57,-3.58l3.57,-14.56l14.57,3.57l-3.57,14.57zm-29.13,-7.15l-14.57,-3.57l3.57,-14.56l14.57,3.57l-3.57,14.56z" fill="#fff" id="svg_15"/>
    </g>
   </g>
   <g id="svg_16">
    <path d="m394.6,411.54l15,0l0,15l-15,0l0,-15z" fill="#000000" id="svg_17" transform="matrix(.866 -.5 .5 .866 -155.649 257.194)"/>
    <path d="m256.02,0l-221.72,128.01l0,256.02l221.72,128.01l130.35,-75.26l-7.5,-12.99l-66.77,38.55l105.58,-96.38l35.66,14.83l-35.5,20.5l7.5,12.99l52.4,-30.25l0,-256.02l-221.72,-128.01zm147.15,349.7l-294.3,0l147.15,-254.86l147.15,254.86zm-131.87,-258.39l189.9,46.54l-47.94,199.33l-141.96,-245.87zm-7.78,-17.35l0,-52.31l157.42,90.88l-157.42,-38.57zm-15,0l-94.11,23.06l3.57,14.57l82.76,-20.28l-141.96,245.87l-47.94,-199.33l92.57,-22.69l-3.57,-14.57l-48.73,11.94l157.41,-90.88l0,52.31zm-161.42,278.77l-37.8,15.73l0,-172.87l37.8,157.14zm7.25,13.23l105.59,96.38l-141.24,-81.54l35.65,-14.84zm20.87,-1.26l281.59,0l-140.79,128.53l-140.8,-128.53zm347.52,-169.11l0,172.87l-37.8,-15.73l37.8,-157.14z" fill="#000000" id="svg_18"/>
   </g>
  </g>
 </g>
</svg>