<svg width="22.000000" height="22.000000" viewBox="0 0 22 22" fill="none" xmlns="http://www.w3.org/2000/svg" xmlns:xlink="http://www.w3.org/1999/xlink">
	<desc>
			Created with Pixso.
	</desc>
	<defs/>
	<path id="path" d="M21.95 2.62C22.27 0.93 20.75 -0.48 19.28 0.15L1.27 7.77C-0.37 8.46 -0.45 10.98 1.15 11.79L5.08 13.77L6.94 20.93C7.04 21.3 7.31 21.59 7.65 21.68C7.99 21.78 8.35 21.67 8.6 21.4L11.48 18.25L15.51 21.56C16.67 22.52 18.36 21.82 18.65 20.25L21.95 2.62ZM1.99 9.81L20 2.18L16.7 19.81L11.98 15.93C11.59 15.61 11.03 15.65 10.68 16.04L9.45 17.39L9.82 15.16L17.07 7.21C17.42 6.83 17.46 6.22 17.16 5.78C16.85 5.35 16.3 5.22 15.87 5.5L5.86 11.76L1.99 9.81ZM7.08 13.51L7.68 15.83L7.92 14.43C7.95 14.21 8.05 14.01 8.19 13.85L10.4 11.43L7.08 13.51Z" fill="#DDDDDD" fill-opacity="1.000000" fill-rule="evenodd"/>
</svg>
